# xmcd
#
# Track frame offsets:
#	150
#	29282
#	53442
#	78904
#	102391
#	117367
#	146976
#	178181
#	204956
#	223583
#	244310
#	273606
#	298205
#	321556
#
# Disc length: 4323 seconds
#
# Revision: 0
# Processed by: cddbd v1.5.1PL0 Copyright (c) Steve Scherf et al.
# Submitted via: dBpowerAMP V4.0
#
DISCID=de10e10e
DTITLE=Various  - Dope on plastic ver.6
DYEAR=1999
DGENRE=Electronic
TTITLE0=The Freska Allstars - Get Fresh
TTITLE1=Bushy and Professor - Drop
TTITLE2=Appleseed - Mile high Express (original trip)
TTITLE3=The Experiment - This is what funk is for
TTITLE4=Kurtis Mantronik - Push yer hands up (dj Punk-Roc mix)
TTITLE5=Slick Sixty - Lionrock's Wrestler
TTITLE6=Wide Reciver - Breakbeat sushi
TTITLE7=Gada Gong - New York Ghost
TTITLE8=Shut up and Dance - Mercury Switches
TTITLE9=Moog - What is a party
TTITLE10=The Maxwell Implosion - Psychochutney
TTITLE11=Tom Tyler - Answer machine blank
TTITLE12=Kings of the wild Frontier - Mexico
TTITLE13=IL Tone Committee - The Son and The Reign
EXTD=jonny stuff
EXTT0=
EXTT1=
EXTT2=
EXTT3=
EXTT4=
EXTT5=
EXTT6=
EXTT7=
EXTT8=
EXTT9=
EXTT10=
EXTT11=
EXTT12=
EXTT13=
PLAYORDER=
